<?xml version="1.0" encoding="UTF-8" standalone="no"?>
<!-- Creator: CorelDRAW -->

<svg
   xml:space="preserve"
   width="230"
   height="230"
   version="1.1"
   style="clip-rule:evenodd;fill-rule:evenodd;image-rendering:optimizeQuality;shape-rendering:geometricPrecision;text-rendering:geometricPrecision"
   viewBox="0 0 2395.8295 2395.8334"
   id="svg111"
   sodipodi:docname="Logo_yellow_copy.svg"
   inkscape:export-filename="/Users/lescardone/Documents/2-personal/jekyll/lescardone.github.io/images/logos/flavicon_yellow.png"
   inkscape:export-xdpi="96"
   inkscape:export-ydpi="96"
   inkscape:version="1.1 (c4e8f9e, 2021-05-24)"
   xmlns:inkscape="http://www.inkscape.org/namespaces/inkscape"
   xmlns:sodipodi="http://sodipodi.sourceforge.net/DTD/sodipodi-0.dtd"
   xmlns="http://www.w3.org/2000/svg"
   xmlns:svg="http://www.w3.org/2000/svg"><sodipodi:namedview
   id="namedview113"
   pagecolor="#ffffff"
   bordercolor="#666666"
   borderopacity="1.0"
   inkscape:pageshadow="2"
   inkscape:pageopacity="0.0"
   inkscape:pagecheckerboard="0"
   inkscape:document-units="in"
   showgrid="false"
   width="6.63358in"
   fit-margin-top="0"
   fit-margin-left="0"
   fit-margin-right="0"
   fit-margin-bottom="0"
   units="px"
   inkscape:zoom="0.94217599"
   inkscape:cx="153.89906"
   inkscape:cy="214.928"
   inkscape:window-width="1375"
   inkscape:window-height="709"
   inkscape:window-x="0"
   inkscape:window-y="25"
   inkscape:window-maximized="0"
   inkscape:current-layer="Layer_x0020_1" />
 <defs
   id="defs85">
  <style
   type="text/css"
   id="style78">
   <![CDATA[
    .fil0 {fill:#5E5E5E}
    .fil1 {fill:#5E5E5E;fill-rule:nonzero}
    .fil2 {fill:url(#id0)}
   ]]>
  </style>
  <linearGradient
   id="id0"
   gradientUnits="userSpaceOnUse"
   x1="800.42999"
   y1="2432.5601"
   x2="831.46997"
   y2="-64.480003"
   gradientTransform="matrix(1.1543041,0,0,1,232.17531,8.6956529e-8)">
   <stop
   offset="0"
   style="stop-opacity:1; stop-color:#C93232"
   id="stop80" />
   <stop
   offset="1"
   style="stop-opacity:1; stop-color:#F2D94D"
   id="stop82" />
  </linearGradient>
 </defs>
 <g
   id="Layer_x0020_1"
   inkscape:label="Layer 1"
   inkscape:groupmode="layer"
   transform="translate(-0.0054272,-92.25)">
  <metadata
   id="CorelCorpID_0Corel-Layer" />
  
  
  
  
  
  
  
  
  
  
  
  
  
  
  
  <path
   id="_32WF"
   class="fil2"
   d="m 648.3135,2451.12 v 35.07 H 293.41115 v -38.07 h 154.9307 v -259.09 l -216.16654,-0.01 v -1.49 c 0,-140.61 0.56561,-282.98 1.13122,-425.32 0.27703,-70.36 0.56561,-140.73 0.77339,-211.08 v -1.51 c 61.89378,0.56 123.81065,0.92 185.70444,1.58 9.51147,0.08 19.06911,0.16 28.55749,0.13 v -459.15 h -154.9307 v -38.07 H 648.3135 v 38.07 H 493.39434 v 459.05 c 66.07237,0.11 132.16782,0.46 198.21711,0.8 l 17.97251,0.09 v 1.49 c -0.3232,105.64 -0.61178,211.31 -0.81955,316.97 -0.19624,104.21 -0.32321,209.62 -0.32321,316.96 v 1.5 H 493.39434 v 259.09 H 648.3135 v 3 z m 1075.419,-875.11 h 19.5539 294.6938 l 9.6269,-0.02 h 1.7315 v 0.02 h 19.5539 V 912.85 h -345.1716 v 663.16 z m 345.1716,37.55 h -19.554 -306.0522 -19.5539 v 372.45 l 345.1716,-0.01 v -372.44 z m -1769.606,301.72 h 19.55391 304.13605 19.55392 V 1607.63 H 299.28656 v 307.65 z m 343.25542,40.16 H 299.2981 v 177.14 h 343.25542 z m 337.17224,-871.35 h 30.79684 c 64.4448,-0.13 128.9127,-0.08 193.369,-0.04 l 99.5472,0.04 h 19.5539 V 420.94 H 979.72576 Z m 343.26694,37.56 H 1303.4388 999.29122 979.7373 v 146.52 h 343.267 v -146.52 z m 65.1836,-751.59 0.8888,954.57 -215.0469,-0.01 v 227.43 h 154.9192 v 38.07 H 974.03504 v -38.07 H 1128.9657 V 1324.62 H 913.90734 v -1.5 c 0,-156.76 0.0231,-314.49 0.1616,-478.57 0.13852,-159.53 0.40401,-319.07 0.88882,-478.57 l 0.0115,-1.49 110.45534,-0.06 52.6248,-0.15 50.9163,-0.26 V 130.32 H 974.03504 V 92.249996 H 1328.9374 V 130.32 h -154.9192 v 233.3 l 1.1543,-0.01 c 9.4423,0 18.896,0.23 28.292,0.45 l 14.7174,0.33 c 56.6648,1.01 113.3296,1.83 169.9944,2.75 v 2.94 z m 270.742,486.34 214.8853,0.01 V 522.25 h -154.3998 v -38.07 h 354.9024 v 38.07 h -155.4501 v 334.16 l 214.0772,-0.01 v 1.5 c 0.6002,197.15 1.3159,394.35 2.1816,591.54 0.8542,197.18 1.87,394.37 3.0705,591.54 l 0.012,1.5 h -219.3408 v 264.47 h 155.4501 v 38.07 h -354.9024 v -38.07 h 154.3998 v -264.48 l -217.2747,-0.03 -0.011,-1.49 c -1.0735,-355.83 -1.062,-711.78 -1.062,-1067.64 l 0.012,-116.91 z"
   style="fill:url(#id0);stroke-width:1.07439" />
 </g>
</svg>
