<?xml version="1.0" encoding="UTF-8"?>
<!DOCTYPE svg PUBLIC "-//W3C//DTD SVG 1.1//EN" "http://www.w3.org/Graphics/SVG/1.1/DTD/svg11.dtd">
<!-- Creator: CorelDRAW -->
<svg xmlns="http://www.w3.org/2000/svg" xml:space="preserve" width="6.63358in" height="2.79215in" version="1.1" style="shape-rendering:geometricPrecision; text-rendering:geometricPrecision; image-rendering:optimizeQuality; fill-rule:evenodd; clip-rule:evenodd"
viewBox="0 0 6633.57 2792.15"
 xmlns:xlink="http://www.w3.org/1999/xlink">
 <defs>
  <style type="text/css">
   <![CDATA[
    .fil0 {fill:#5E5E5E}
    .fil1 {fill:#5E5E5E;fill-rule:nonzero}
    .fil2 {fill:url(#id0)}
   ]]>
  </style>
  <linearGradient id="id0" gradientUnits="userSpaceOnUse" x1="678.5" y1="2492.52" x2="1026.79" y2="-74.93">
   <stop offset="0" style="stop-opacity:1; stop-color:#8C2087"/>
   <stop offset="1" style="stop-opacity:1; stop-color:#FF6EA8"/>
  </linearGradient>
 </defs>
 <g id="Layer_x0020_1">
  <metadata id="CorelCorpID_0Corel-Layer"/>
  <path class="fil0" d="M1539.16 2226.7l426.14 0c434.35,0 754.24,-354.44 754.24,-781 0,-420.49 -326.17,-780.97 -754.24,-780.97l-426.13 0 0 90.84 8.32 0 143.07 0 245.55 0c388.72,0 665.83,308.7 665.83,690.13 0,384.17 -277.21,680.43 -665.83,680.43l-245.55 0 -143.07 0 -8.33 0 0 100.57zm4150.73 -440.98l656.97 0c-59.09,-146.55 -50.96,-126.18 -327.71,-836 -258.58,656.24 -264.55,673.21 -329.26,836zm689.63 81.11l-721.92 0 -143.48 359.87 -110.08 0 614.77 -1480.85 614.77 1480.85 -110.11 0c-70.94,-177.94 -114.32,-286.2 -143.94,-359.87zm-2248.77 359.87l110.11 0 -614.78 -1480.85 -614.77 1480.85 110.09 0 143.46 -359.87 722.41 0 143.48 359.87zm-504.32 -1276.98l325.93 836 -655.35 0 329.41 -836zm1142.09 1276.98l107.85 0 0 -1471.13 420.67 0 0 -90.84 -949.2 0 0 90.84 420.67 0 0 1471.13z"/>
  <polygon class="fil1" points="1449.44,399.06 1666.6,399.06 1666.6,343.09 1506.53,343.09 1506.53,7.28 1449.44,7.28 "/>
  <polygon id="1" class="fil1" points="1932.74,399.06 1989.83,399.06 1989.83,7.28 1932.74,7.28 "/>
  <polygon id="2" class="fil1" points="2574.99,7.28 2511.75,7.28 2413.8,269.21 2315.85,7.28 2252.61,7.28 2413.8,405.78 "/>
  <polygon id="3" class="fil1" points="2837.77,399.06 2894.86,399.06 2894.86,7.28 2837.77,7.28 "/>
  <polygon id="4" class="fil1" points="3186.74,399.06 3240.47,399.06 3240.47,96.27 3493.45,405.78 3493.45,7.28 3439.73,7.28 3439.73,247.39 3239.36,7.28 3186.74,7.28 "/>
  <path id="5" class="fil1" d="M3957.16 225.56l144.4 0c-5.6,75 -60.45,124.81 -139.37,124.81 -81.15,0 -141.04,-62.13 -141.04,-146.64 0,-85.07 59.89,-147.2 141.04,-147.2 46.46,0 88.99,23.51 114.18,60.44l45.34 -35.26c-36.38,-49.25 -94.03,-81.15 -159.52,-81.15 -116.41,0 -200.93,90.67 -200.93,203.17 0,111.94 84.52,202.61 200.93,202.61 116.98,0 200.93,-90.67 200.93,-202.61 0,-10.63 -0.56,-20.71 -2.24,-30.78l-203.73 0 0 52.61z"/>
  <polygon id="6" class="fil1" points="4832.41,399.06 4889.5,399.06 4889.5,60.45 4986.33,60.45 4986.33,7.28 4735.58,7.28 4735.58,60.45 4832.41,60.45 "/>
  <polygon id="7" class="fil1" points="5254.14,399.06 5311.23,399.06 5311.23,227.24 5464.03,227.24 5464.03,399.06 5521.11,399.06 5521.11,7.28 5464.03,7.28 5464.03,174.63 5311.23,174.63 5311.23,7.28 5254.14,7.28 "/>
  <path id="8" class="fil1" d="M6053.11 399.06l60.44 0 -165.67 -399.06 -165.67 399.06 60.45 0 33.02 -82.83 144.4 0 33.02 82.83zm-105.22 -265.85l51.49 132.09 -103.54 0 52.05 -132.09z"/>
  <polygon id="9" class="fil1" points="6405.44,399.06 6462.53,399.06 6462.53,60.45 6559.35,60.45 6559.35,7.28 6308.61,7.28 6308.61,60.45 6405.44,60.45 "/>
  <polygon class="fil1" points="4998.64,2792.15 5215.8,2792.15 5215.8,2736.18 5055.73,2736.18 5055.73,2400.36 4998.64,2400.36 "/>
  <polygon id="1" class="fil1" points="5481.94,2792.15 5539.03,2792.15 5539.03,2400.36 5481.94,2400.36 "/>
  <polygon id="2" class="fil1" points="5833.71,2792.15 5890.8,2792.15 5890.8,2622.56 6045.83,2622.56 6045.83,2569.95 5890.8,2569.95 5890.8,2454.65 6050.87,2454.65 6050.87,2400.36 5833.71,2400.36 "/>
  <polygon id="3" class="fil1" points="6333.8,2792.15 6554.32,2792.15 6554.32,2736.18 6390.89,2736.18 6390.89,2614.16 6545.93,2614.16 6545.93,2561.55 6390.89,2561.55 6390.89,2454.65 6550.96,2454.65 6550.96,2400.36 6333.8,2400.36 "/>
  <path id="_32WF" class="fil2" d="M360.51 2451.12l0 35.07 -307.46 0 0 -38.07 134.22 0 0 -259.09 -187.27 -0.01 0 -1.49c0,-140.61 0.49,-282.98 0.98,-425.32 0.24,-70.36 0.49,-140.73 0.67,-211.08l0 -1.51c53.62,0.56 107.26,0.92 160.88,1.58 8.24,0.08 16.52,0.16 24.74,0.13l0 -459.15 -134.22 0 0 -38.07 307.46 0 0 38.07 -134.21 0 0 459.05c57.24,0.11 114.5,0.46 171.72,0.8l15.57 0.09 -0 1.49c-0.28,105.64 -0.53,211.31 -0.71,316.97 -0.17,104.21 -0.28,209.62 -0.28,316.96l0 1.5 -186.3 -0 0 259.09 134.21 0 0 3zm931.66 -875.11l16.94 0 255.3 0 8.34 -0.02 1.5 -0 0 0.02 16.94 0 0 -663.16 -299.03 0 0 663.16zm299.03 37.55l-16.94 0 -265.14 0 -16.94 0 0 372.45 299.03 -0.01 0 -372.44zm-1533.05 301.72l16.94 0 263.48 0 16.94 0 0 -307.65 -297.37 0 0 307.65zm297.37 40.16l-297.37 0 0 177.14 297.37 0 0 -177.14zm292.1 -871.35l26.68 0c55.83,-0.13 111.68,-0.08 167.52,-0.04l86.24 0.04 16.94 0 0 -663.15 -297.38 0 0 663.15zm297.38 37.56l-16.94 0 -263.49 0 -16.94 0 0 146.52 297.38 0 0 -146.52zm56.47 -751.59l0.77 954.57 -186.3 -0.01 0 227.43 134.21 0 0 38.07 -307.46 0 0 -38.07 134.22 0 0 -227.43 -186.31 -0 0 -1.5c0,-156.76 0.02,-314.49 0.14,-478.57 0.12,-159.53 0.35,-319.07 0.77,-478.57l0.01 -1.49 95.69 -0.06 45.59 -0.15 44.11 -0.26 0 -233.7 -134.22 0 0 -38.07 307.46 0 0 38.07 -134.21 0 0 233.3 1 -0.01c8.18,0 16.37,0.23 24.51,0.45l12.75 0.33c49.09,1.01 98.18,1.83 147.27,2.75l-0 2.94zm234.55 486.34l186.16 0.01 0 -334.16 -133.76 0 0 -38.07 307.46 0 0 38.07 -134.67 0 0 334.16 185.46 -0.01 0 1.5c0.52,197.15 1.14,394.35 1.89,591.54 0.74,197.18 1.62,394.37 2.66,591.54l0.01 1.5 -190.02 0 0 264.47 134.67 0 0 38.07 -307.46 0 0 -38.07 133.76 0 0 -264.48 -188.23 -0.03 -0.01 -1.49c-0.93,-355.83 -0.92,-711.78 -0.92,-1067.64l0.01 -116.91 2.99 0z"/>
 </g>
</svg>
